<svg xmlns="http://www.w3.org/2000/svg" viewBox="0 0 3840 720" width="3840" height="720">
  <defs>
    <linearGradient id="skyG" x1="0" y1="0" x2="0" y2="1">
      <stop offset="0%" stop-color="#1565C0"/>
      <stop offset="70%" stop-color="#42A5F5"/>
      <stop offset="100%" stop-color="#90CAF9"/>
    </linearGradient>
    <linearGradient id="roadG" x1="0" y1="0" x2="0" y2="1">
      <stop offset="0%" stop-color="#616161"/>
      <stop offset="100%" stop-color="#424242"/>
    </linearGradient>
    <linearGradient id="stoneG" x1="0" y1="0" x2="0" y2="1">
      <stop offset="0%" stop-color="#BDBDBD"/>
      <stop offset="100%" stop-color="#9E9E9E"/>
    </linearGradient>
    <pattern id="cobblePattern" x="0" y="0" width="80" height="50" patternUnits="userSpaceOnUse">
      <rect width="80" height="50" fill="#9E9E9E"/>
      <rect x="2" y="2" width="36" height="22" rx="3" fill="#BDBDBD"/>
      <rect x="42" y="2" width="36" height="22" rx="3" fill="#B0B0B0"/>
      <rect x="2" y="28" width="76" height="20" rx="3" fill="#B8B8B8"/>
    </pattern>
  </defs>

  <!-- Sky -->
  <rect width="3840" height="720" fill="url(#skyG)"/>

  <!-- Sun / light -->
  <circle cx="3600" cy="100" r="80" fill="#FFD600" opacity="0.7"/>
  <circle cx="3600" cy="100" r="55" fill="#FFEA00" opacity="0.8"/>

  <!-- Clouds -->
  <g opacity="0.8">
    <ellipse cx="400" cy="80" rx="100" ry="38" fill="white"/>
    <ellipse cx="350" cy="90" rx="70" ry="34" fill="white"/>
    <ellipse cx="470" cy="92" rx="80" ry="30" fill="white"/>
  </g>
  <g opacity="0.8">
    <ellipse cx="1100" cy="60" rx="90" ry="35" fill="white"/>
    <ellipse cx="1050" cy="70" rx="65" ry="30" fill="white"/>
    <ellipse cx="1165" cy="72" rx="72" ry="28" fill="white"/>
  </g>
  <g opacity="0.8">
    <ellipse cx="2000" cy="75" rx="95" ry="36" fill="white"/>
    <ellipse cx="1950" cy="85" rx="68" ry="32" fill="white"/>
    <ellipse cx="2070" cy="88" rx="78" ry="28" fill="white"/>
  </g>
  <g opacity="0.85">
    <ellipse cx="2900" cy="65" rx="88" ry="34" fill="white"/>
    <ellipse cx="2845" cy="75" rx="62" ry="30" fill="white"/>
    <ellipse cx="2965" cy="78" rx="70" ry="26" fill="white"/>
  </g>

  <!-- EU flags row (top area) -->
  <g>
    <!-- Flag 1 -->
    <rect x="60" y="30" width="80" height="52" fill="#003399"/>
    <!-- Stars (12 stars in circle) -->
    <g transform="translate(100,56)" fill="#FFD700" font-size="10">
      <circle cx="0" cy="-18" r="4"/>
      <circle cx="9" cy="-15.6" r="4"/>
      <circle cx="15.6" cy="-9" r="4"/>
      <circle cx="18" cy="0" r="4"/>
      <circle cx="15.6" cy="9" r="4"/>
      <circle cx="9" cy="15.6" r="4"/>
      <circle cx="0" cy="18" r="4"/>
      <circle cx="-9" cy="15.6" r="4"/>
      <circle cx="-15.6" cy="9" r="4"/>
      <circle cx="-18" cy="0" r="4"/>
      <circle cx="-15.6" cy="-9" r="4"/>
      <circle cx="-9" cy="-15.6" r="4"/>
    </g>
    <rect x="60" y="30" width="5" height="80" fill="#888"/>
    <!-- Flag 2 -->
    <rect x="180" y="30" width="80" height="52" fill="#003399"/>
    <g transform="translate(220,56)" fill="#FFD700">
      <circle cx="0" cy="-18" r="4"/>
      <circle cx="9" cy="-15.6" r="4"/>
      <circle cx="15.6" cy="-9" r="4"/>
      <circle cx="18" cy="0" r="4"/>
      <circle cx="15.6" cy="9" r="4"/>
      <circle cx="9" cy="15.6" r="4"/>
      <circle cx="0" cy="18" r="4"/>
      <circle cx="-9" cy="15.6" r="4"/>
      <circle cx="-15.6" cy="9" r="4"/>
      <circle cx="-18" cy="0" r="4"/>
      <circle cx="-15.6" cy="-9" r="4"/>
      <circle cx="-9" cy="-15.6" r="4"/>
    </g>
    <rect x="180" y="30" width="5" height="80" fill="#888"/>
  </g>

  <!-- Grand Place style building (left, ornate) -->
  <g transform="translate(30,120)">
    <!-- Main facade -->
    <rect x="0" y="0" width="340" height="440" fill="#C9A84C"/>
    <rect x="10" y="8" width="320" height="424" fill="#D4B465"/>
    <!-- Columns -->
    <rect x="30" y="20" width="24" height="410" rx="12" fill="#B8960C"/>
    <rect x="80" y="20" width="24" height="410" rx="12" fill="#B8960C"/>
    <rect x="130" y="20" width="24" height="410" rx="12" fill="#B8960C"/>
    <rect x="180" y="20" width="24" height="410" rx="12" fill="#B8960C"/>
    <rect x="230" y="20" width="24" height="410" rx="12" fill="#B8960C"/>
    <rect x="280" y="20" width="24" height="410" rx="12" fill="#B8960C"/>
    <!-- Windows - 3 floors -->
    <rect x="40" y="50" width="54" height="80" rx="6" fill="#87CEEB"/>
    <rect x="130" y="50" width="54" height="80" rx="6" fill="#87CEEB"/>
    <rect x="220" y="50" width="54" height="80" rx="6" fill="#87CEEB"/>
    <rect x="40" y="170" width="54" height="80" rx="6" fill="#87CEEB"/>
    <rect x="130" y="170" width="54" height="80" rx="6" fill="#87CEEB"/>
    <rect x="220" y="170" width="54" height="80" rx="6" fill="#87CEEB"/>
    <rect x="40" y="290" width="54" height="80" rx="6" fill="#87CEEB"/>
    <rect x="130" y="290" width="54" height="80" rx="6" fill="#87CEEB"/>
    <rect x="220" y="290" width="54" height="80" rx="6" fill="#87CEEB"/>
    <!-- door -->
    <rect x="130" y="370" width="80" height="70" rx="8" fill="#5D4037"/>
    <rect x="140" y="380" width="28" height="56" rx="4" fill="#4E342E"/>
    <rect x="172" y="380" width="28" height="56" rx="4" fill="#4E342E"/>
    <!-- Tower / spire -->
    <rect x="130" y="-80" width="80" height="80" fill="#B8960C"/>
    <polygon points="170,-80 120,-150 220,-150" fill="#C9A84C"/>
    <circle cx="170" cy="-155" r="10" fill="#FFD700"/>
    <!-- Ornamental top -->
    <rect x="0" y="-8" width="340" height="20" fill="#B8960C"/>
    <rect x="20" y="-28" width="300" height="22" fill="#C9A84C"/>
  </g>

  <!-- Atomium (Brussels landmark) -->
  <g transform="translate(600,50)">
    <!-- 9 spheres of the Atomium in characteristic arrangement -->
    <!-- Center sphere -->
    <circle cx="160" cy="260" r="55" fill="#B0BEC5" stroke="#90A4AE" stroke-width="4"/>
    <circle cx="160" cy="260" r="44" fill="#CFD8DC"/>
    <circle cx="145" cy="242" r="14" fill="white" opacity="0.4"/>
    <!-- Top sphere -->
    <circle cx="160" cy="120" r="55" fill="#B0BEC5" stroke="#90A4AE" stroke-width="4"/>
    <circle cx="160" cy="120" r="44" fill="#CFD8DC"/>
    <circle cx="145" cy="102" r="14" fill="white" opacity="0.4"/>
    <!-- Bottom sphere -->
    <circle cx="160" cy="400" r="55" fill="#B0BEC5" stroke="#90A4AE" stroke-width="4"/>
    <circle cx="160" cy="400" r="44" fill="#CFD8DC"/>
    <!-- Left sphere -->
    <circle cx="20" cy="260" r="55" fill="#B0BEC5" stroke="#90A4AE" stroke-width="4"/>
    <circle cx="20" cy="260" r="44" fill="#CFD8DC"/>
    <!-- Right sphere -->
    <circle cx="300" cy="260" r="55" fill="#B0BEC5" stroke="#90A4AE" stroke-width="4"/>
    <circle cx="300" cy="260" r="44" fill="#CFD8DC"/>
    <!-- 4 diagonal spheres -->
    <circle cx="60" cy="155" r="50" fill="#B0BEC5" stroke="#90A4AE" stroke-width="4"/>
    <circle cx="60" cy="155" r="40" fill="#CFD8DC"/>
    <circle cx="260" cy="155" r="50" fill="#B0BEC5" stroke="#90A4AE" stroke-width="4"/>
    <circle cx="260" cy="155" r="40" fill="#CFD8DC"/>
    <circle cx="60" cy="365" r="50" fill="#B0BEC5" stroke="#90A4AE" stroke-width="4"/>
    <circle cx="60" cy="365" r="40" fill="#CFD8DC"/>
    <circle cx="260" cy="365" r="50" fill="#B0BEC5" stroke="#90A4AE" stroke-width="4"/>
    <circle cx="260" cy="365" r="40" fill="#CFD8DC"/>
    <!-- Connecting tubes -->
    <line x1="160" y1="175" x2="160" y2="205" stroke="#90A4AE" stroke-width="26"/>
    <line x1="160" y1="315" x2="160" y2="345" stroke="#90A4AE" stroke-width="26"/>
    <line x1="75" y1="260" x2="105" y2="260" stroke="#90A4AE" stroke-width="26"/>
    <line x1="215" y1="260" x2="245" y2="260" stroke="#90A4AE" stroke-width="26"/>
    <line x1="94" y1="183" x2="128" y2="234" stroke="#90A4AE" stroke-width="22"/>
    <line x1="192" y1="234" x2="227" y2="183" stroke="#90A4AE" stroke-width="22"/>
    <line x1="94" y1="337" x2="128" y2="286" stroke="#90A4AE" stroke-width="22"/>
    <line x1="192" y1="286" x2="227" y2="337" stroke="#90A4AE" stroke-width="22"/>
    <!-- Shafts to ground -->
    <rect x="146" y="450" width="28" height="110" fill="#90A4AE"/>
    <!-- Base -->
    <rect x="60" y="555" width="200" height="24" rx="8" fill="#78909C"/>
    <!-- Highlight: windows on spheres -->
    <circle cx="160" cy="120" r="20" fill="white" opacity="0.2"/>
    <circle cx="160" cy="260" r="22" fill="white" opacity="0.2"/>
  </g>

  <!-- EU Parliament building style (large, modern, glass) -->
  <g transform="translate(1150,200)">
    <!-- Main glass building -->
    <rect x="0" y="0" width="500" height="360" fill="#1565C0"/>
    <rect x="8" y="8" width="484" height="344" fill="#1976D2"/>
    <!-- Glass panel grid -->
    <g stroke="#1E88E5" stroke-width="2" opacity="0.6">
      <line x1="0" y1="60" x2="500" y2="60"/>
      <line x1="0" y1="120" x2="500" y2="120"/>
      <line x1="0" y1="180" x2="500" y2="180"/>
      <line x1="0" y1="240" x2="500" y2="240"/>
      <line x1="0" y1="300" x2="500" y2="300"/>
      <line x1="100" y1="0" x2="100" y2="360"/>
      <line x1="200" y1="0" x2="200" y2="360"/>
      <line x1="300" y1="0" x2="300" y2="360"/>
      <line x1="400" y1="0" x2="400" y2="360"/>
    </g>
    <!-- Blue flag stripe on top -->
    <rect x="0" y="-20" width="500" height="24" fill="#003399"/>
    <!-- EU emblem -->
    <rect x="200" y="-18" width="100" height="20" fill="#003399"/>
    <!-- Stars on emblem -->
    <g fill="#FFD700">
      <circle cx="216" cy="-8" r="3"/>
      <circle cx="230" cy="-8" r="3"/>
      <circle cx="244" cy="-8" r="3"/>
      <circle cx="258" cy="-8" r="3"/>
      <circle cx="272" cy="-8" r="3"/>
      <circle cx="286" cy="-8" r="3"/>
    </g>
    <!-- Entrance -->
    <rect x="180" y="290" width="140" height="70" rx="8" fill="#0D47A1"/>
    <rect x="195" y="300" width="50" height="56" rx="5" fill="#64B5F6"/>
    <rect x="255" y="300" width="50" height="56" rx="5" fill="#64B5F6"/>
    <!-- Reflection -->
    <rect x="8" y="8" width="484" height="344" fill="url(#skyG)" opacity="0.18"/>
  </g>

  <!-- Waffle/Belgian chocolate shop -->
  <g transform="translate(1800,250)">
    <!-- Building -->
    <rect x="0" y="0" width="280" height="310" fill="#FFF8E1"/>
    <rect x="0" y="0" width="280" height="48" fill="#F57F17"/>
    <!-- Sign -->
    <rect x="20" y="8" width="240" height="32" rx="6" fill="#FFCA28"/>
    <text x="30" y="31" font-family="Arial, sans-serif" font-size="22" fill="#5D4037" font-weight="bold">WAFFLES 🧇</text>
    <!-- Windows -->
    <rect x="20" y="70" width="80" height="100" rx="6" fill="#87CEEB"/>
    <rect x="180" y="70" width="80" height="100" rx="6" fill="#87CEEB"/>
    <!-- Display waffles in window -->
    <rect x="28" y="78" width="64" height="84" fill="#FFECB3"/>
    <!-- Waffle grid pattern -->
    <g stroke="#FF8F00" stroke-width="3">
      <line x1="28" y1="96" x2="92" y2="96"/>
      <line x1="28" y1="114" x2="92" y2="114"/>
      <line x1="28" y1="132" x2="92" y2="132"/>
      <line x1="28" y1="150" x2="92" y2="150"/>
      <line x1="48" y1="78" x2="48" y2="162"/>
      <line x1="68" y1="78" x2="68" y2="162"/>
    </g>
    <!-- Door -->
    <rect x="100" y="220" width="80" height="90" rx="6" fill="#A1887F"/>
    <rect x="108" y="228" width="30" height="74" rx="4" fill="#8D6E63"/>
    <rect x="142" y="228" width="30" height="74" rx="4" fill="#8D6E63"/>
    <!-- Chocolate box in other window -->
    <rect x="188" y="78" width="64" height="84" fill="#3E2723"/>
    <g fill="#795548">
      <rect x="192" y="82" width="24" height="24" rx="4"/>
      <rect x="220" y="82" width="24" height="24" rx="4"/>
      <rect x="192" y="110" width="24" height="24" rx="4"/>
      <rect x="220" y="110" width="24" height="24" rx="4"/>
      <rect x="192" y="138" width="24" height="24" rx="4"/>
      <rect x="220" y="138" width="24" height="24" rx="4"/>
    </g>
    <!-- Awning -->
    <path d="M-10 0 L290 0 L270 52 L10 52 Z" fill="#F9A825" opacity="0.9"/>
    <g stroke="#E65100" stroke-width="4">
      <line x1="30" y1="0" x2="16" y2="52"/>
      <line x1="100" y1="0" x2="90" y2="52"/>
      <line x1="180" y1="0" x2="170" y2="52"/>
      <line x1="250" y1="0" x2="264" y2="52"/>
    </g>
  </g>

  <!-- Manneken Pis statue -->
  <g transform="translate(2250,320)">
    <!-- Pedestal -->
    <rect x="30" y="130" width="100" height="90" fill="#9E9E9E"/>
    <rect x="20" y="200" width="120" height="20" rx="5" fill="#BDBDBD"/>
    <rect x="10" y="212" width="140" height="14" rx="4" fill="#9E9E9E"/>
    <!-- Figure (stylized) -->
    <circle cx="80" cy="60" r="36" fill="#FFCC80"/>
    <rect x="52" y="92" width="56" height="60" rx="10" fill="#1565C0"/>
    <rect x="42" y="98" width="20" height="48" rx="10" fill="#1565C0"/>
    <rect x="98" y="98" width="20" height="48" rx="10" fill="#1565C0"/>
    <rect x="54" y="148" width="20" height="52" rx="10" fill="#FFCC80"/>
    <rect x="86" y="148" width="20" height="52" rx="10" fill="#FFCC80"/>
    <ellipse cx="64" cy="200" rx="14" ry="8" fill="#795548"/>
    <ellipse cx="96" cy="200" rx="14" ry="8" fill="#795548"/>
  </g>

  <!-- Classic Brussels building 2 (right side) -->
  <g transform="translate(2600,150)">
    <rect x="0" y="0" width="300" height="410" fill="#EFEBE9"/>
    <rect x="10" y="8" width="280" height="394" fill="#F5F5F5"/>
    <!-- Neo-Gothic arched windows -->
    <g fill="#87CEEB" stroke="#9E9E9E" stroke-width="2">
      <path d="M30,60 Q30,20 60,20 Q90,20 90,60 L90,130 Q90,140 80,140 L40,140 Q30,140 30,130 Z"/>
      <path d="M110,60 Q110,20 140,20 Q170,20 170,60 L170,130 Q170,140 160,140 L120,140 Q110,140 110,130 Z"/>
      <path d="M190,60 Q190,20 220,20 Q250,20 250,60 L250,130 Q250,140 240,140 L200,140 Q190,140 190,130 Z"/>
      <!-- Second floor -->
      <path d="M30,180 Q30,140 60,140 Q90,140 90,180 L90,250 Q90,260 80,260 L40,260 Q30,260 30,250 Z" fill="#B3E5FC"/>
      <path d="M110,180 Q110,140 140,140 Q170,140 170,180 L170,250 Q170,260 160,260 L120,260 Q110,260 110,250 Z" fill="#B3E5FC"/>
      <path d="M190,180 Q190,140 220,140 Q250,140 250,180 L250,250 Q250,260 240,260 L200,260 Q190,260 190,250 Z" fill="#B3E5FC"/>
    </g>
    <!-- Door -->
    <path d="M110,310 Q110,270 140,270 Q170,270 170,310 L170,410 L110,410 Z" fill="#5D4037"/>
    <!-- Ornate roof details -->
    <rect x="0" y="-12" width="300" height="16" fill="#BDBDBD"/>
    <rect x="20" y="-30" width="260" height="20" fill="#EEEEEE"/>
    <rect x="0" y="-40" width="300" height="14" fill="#BDBDBD"/>
    <!-- Spire -->
    <polygon points="150,-40 120,-100 180,-100" fill="#9E9E9E"/>
    <circle cx="150" cy="-104" r="8" fill="#FFD700"/>
  </g>

  <!-- Another ornate building (right area) -->
  <g transform="translate(3100,180)">
    <rect x="0" y="0" width="360" height="380" fill="#D4B465"/>
    <rect x="12" y="12" width="336" height="356" fill="#DAC070"/>
    <!-- Many decorative windows -->
    <g fill="#87CEEB" stroke="#B8960C" stroke-width="2">
      <rect x="24" y="30" width="60" height="80" rx="5"/>
      <rect x="102" y="30" width="60" height="80" rx="5"/>
      <rect x="180" y="30" width="60" height="80" rx="5"/>
      <rect x="258" y="30" width="60" height="80" rx="5"/>
      <rect x="24" y="140" width="60" height="80" rx="5"/>
      <rect x="102" y="140" width="60" height="80" rx="5"/>
      <rect x="180" y="140" width="60" height="80" rx="5"/>
      <rect x="258" y="140" width="60" height="80" rx="5"/>
      <rect x="24" y="250" width="60" height="80" rx="5"/>
      <rect x="258" y="250" width="60" height="80" rx="5"/>
    </g>
    <!-- Grand door -->
    <rect x="114" y="250" width="132" height="130" rx="10" fill="#5D4037"/>
    <rect x="124" y="260" width="50" height="112" rx="6" fill="#4E342E"/>
    <rect x="186" y="260" width="50" height="112" rx="6" fill="#4E342E"/>
    <!-- Gold decoration -->
    <rect x="0" y="-14" width="360" height="18" fill="#B8960C"/>
    <rect x="40" y="-36" width="280" height="24" fill="#C9A84C"/>
    <!-- Columns -->
    <rect x="40" y="15" width="22" height="350" rx="11" fill="#C9A84C"/>
    <rect x="114" y="15" width="22" height="235" rx="11" fill="#C9A84C"/>
    <rect x="224" y="15" width="22" height="235" rx="11" fill="#C9A84C"/>
    <rect x="298" y="15" width="22" height="350" rx="11" fill="#C9A84C"/>
    <!-- Central tower -->
    <rect x="140" y="-80" width="80" height="80" fill="#B8960C"/>
    <polygon points="180,-80 148,-140 212,-140" fill="#C9A84C"/>
    <circle cx="180" cy="-144" r="10" fill="#FFD700"/>
  </g>

  <!-- Belgian flag hanging from building -->
  <g transform="translate(3500,100)">
    <rect x="0" y="0" width="6" height="120" fill="#555"/>
    <rect x="6" y="0" width="48" height="120" fill="#1a1a1a"/>
    <rect x="54" y="0" width="48" height="120" fill="#FFD700"/>
    <rect x="102" y="0" width="48" height="120" fill="#E53935"/>
  </g>

  <!-- Cobblestone street / ground -->
  <rect y="560" width="3840" height="160" fill="url(#cobblePattern)"/>
  <!-- Street shadow under buildings -->
  <rect y="555" width="3840" height="14" fill="#757575" opacity="0.5"/>
  
  <!-- Street lamps with period-style iron posts -->
  <g fill="#424242">
    <!-- Lamp 1 -->
    <rect x="475" y="400" width="12" height="165" rx="6"/>
    <ellipse cx="481" cy="398" rx="40" ry="12" fill="#616161"/>
    <circle cx="481" cy="382" r="20" fill="#FFF9C4"/>
    <circle cx="481" cy="382" r="14" fill="#FFD600" opacity="0.8"/>
    <!-- Lamp 2 -->
    <rect x="1070" y="400" width="12" height="165" rx="6"/>
    <ellipse cx="1076" cy="398" rx="40" ry="12" fill="#616161"/>
    <circle cx="1076" cy="382" r="20" fill="#FFF9C4"/>
    <circle cx="1076" cy="382" r="14" fill="#FFD600" opacity="0.8"/>
    <!-- Lamp 3 -->
    <rect x="2080" y="400" width="12" height="165" rx="6"/>
    <ellipse cx="2086" cy="398" rx="40" ry="12" fill="#616161"/>
    <circle cx="2086" cy="382" r="20" fill="#FFF9C4"/>
    <circle cx="2086" cy="382" r="14" fill="#FFD600" opacity="0.8"/>
    <!-- Lamp 4 -->
    <rect x="2560" y="400" width="12" height="165" rx="6"/>
    <ellipse cx="2566" cy="398" rx="40" ry="12" fill="#616161"/>
    <circle cx="2566" cy="382" r="20" fill="#FFF9C4"/>
    <circle cx="2566" cy="382" r="14" fill="#FFD600" opacity="0.8"/>
    <!-- Lamp 5 -->
    <rect x="3080" y="400" width="12" height="165" rx="6"/>
    <ellipse cx="3086" cy="398" rx="40" ry="12" fill="#616161"/>
    <circle cx="3086" cy="382" r="20" fill="#FFF9C4"/>
    <circle cx="3086" cy="382" r="14" fill="#FFD600" opacity="0.8"/>
  </g>

  <!-- EU flags on lamp posts -->
  <g fill="#003399">
    <rect x="488" y="388" width="50" height="34"/>
  </g>
  <g transform="translate(488,388)" fill="#FFD700">
    <circle cx="25" cy="8" r="3"/>
    <circle cx="38" cy="12" r="3"/>
    <circle cx="42" cy="25" r="3"/>
    <circle cx="38" cy="29" r="3"/>
    <circle cx="25" cy="32" r="3"/>
    <circle cx="12" cy="29" r="3"/>
    <circle cx="8" cy="25" r="3"/>
    <circle cx="12" cy="12" r="3"/>
  </g>

  <!-- Pigeons on street -->
  <g fill="#9E9E9E">
    <ellipse cx="500" cy="600" rx="18" ry="10"/>
    <circle cx="490" cy="595" r="10"/>
    <circle cx="484" cy="593" r="5" fill="#B0BEC5"/>
    <ellipse cx="680" cy="614" rx="18" ry="10"/>
    <circle cx="670" cy="609" r="10"/>
    <circle cx="664" cy="607" r="5" fill="#B0BEC5"/>
    <ellipse cx="2100" cy="604" rx="18" ry="10"/>
    <circle cx="2090" cy="599" r="10"/>
    <ellipse cx="3200" cy="610" rx="18" ry="10"/>
    <circle cx="3190" cy="605" r="10"/>
  </g>
</svg>
