<svg xmlns="http://www.w3.org/2000/svg" viewBox="0 0 3840 720" width="3840" height="720">
  <defs>
    <linearGradient id="skyG" x1="0" y1="0" x2="0" y2="1">
      <stop offset="0%" stop-color="#87CEEB"/>
      <stop offset="70%" stop-color="#BBDEFB"/>
      <stop offset="100%" stop-color="#E1F5FE"/>
    </linearGradient>
    <linearGradient id="oceanG" x1="0" y1="0" x2="0" y2="1">
      <stop offset="0%" stop-color="#1E88E5"/>
      <stop offset="100%" stop-color="#1565C0"/>
    </linearGradient>
    <linearGradient id="sandG" x1="0" y1="0" x2="0" y2="1">
      <stop offset="0%" stop-color="#FFD54F"/>
      <stop offset="100%" stop-color="#FFCA28"/>
    </linearGradient>
  </defs>
  
  <!-- Sky -->
  <rect width="3840" height="720" fill="url(#skyG)"/>
  
  <!-- Sun -->
  <circle cx="3660" cy="100" r="75" fill="#FFD600" opacity="0.95"/>
  <circle cx="3660" cy="100" r="58" fill="#FFEE58"/>
  
  <!-- Clouds -->
  <g opacity="0.9">
    <circle cx="280" cy="70" r="48" fill="white"/>
    <circle cx="332" cy="50" r="58" fill="white"/>
    <circle cx="392" cy="62" r="48" fill="white"/>
    <circle cx="440" cy="72" r="38" fill="white"/>
  </g>
  <g opacity="0.85">
    <circle cx="820" cy="55" r="42" fill="white"/>
    <circle cx="866" cy="38" r="52" fill="white"/>
    <circle cx="922" cy="50" r="42" fill="white"/>
    <circle cx="966" cy="60" r="34" fill="white"/>
  </g>
  <g opacity="0.9">
    <circle cx="1600" cy="65" r="46" fill="white"/>
    <circle cx="1650" cy="45" r="56" fill="white"/>
    <circle cx="1710" cy="57" r="46" fill="white"/>
    <circle cx="1756" cy="67" r="38" fill="white"/>
  </g>
  <g opacity="0.87">
    <circle cx="2400" cy="58" r="44" fill="white"/>
    <circle cx="2448" cy="40" r="54" fill="white"/>
    <circle cx="2506" cy="52" r="44" fill="white"/>
    <circle cx="2552" cy="62" r="36" fill="white"/>
  </g>
  <g opacity="0.88">
    <circle cx="3100" cy="68" r="40" fill="white"/>
    <circle cx="3144" cy="50" r="50" fill="white"/>
    <circle cx="3198" cy="62" r="40" fill="white"/>
    <circle cx="3240" cy="72" r="32" fill="white"/>
  </g>
  
  <!-- Ocean -->
  <rect y="280" width="3840" height="200" fill="url(#oceanG)"/>
  <!-- Waves on ocean top -->
  <path d="M0 280 Q96 260 192 280 Q288 300 384 280 Q480 260 576 280 Q672 300 768 280 Q864 260 960 280 Q1056 300 1152 280 Q1248 260 1344 280 Q1440 300 1536 280 Q1632 260 1728 280 Q1824 300 1920 280 Q2016 260 2112 280 Q2208 300 2304 280 Q2400 260 2496 280 Q2592 300 2688 280 Q2784 260 2880 280 Q2976 300 3072 280 Q3168 260 3264 280 Q3360 300 3456 280 Q3552 260 3648 280 Q3744 300 3840 280" 
        stroke="white" stroke-width="6" fill="none" opacity="0.6"/>
  <path d="M0 300 Q96 280 192 300 Q288 320 384 300 Q480 280 576 300 Q672 320 768 300 Q864 280 960 300 Q1056 320 1152 300 Q1248 280 1344 300 Q1440 320 1536 300 Q1632 280 1728 300 Q1824 320 1920 300 Q2016 280 2112 300 Q2208 320 2304 300 Q2400 280 2496 300 Q2592 320 2688 300 Q2784 280 2880 300 Q2976 320 3072 300 Q3168 280 3264 300 Q3360 320 3456 300 Q3552 280 3648 300 Q3744 320 3840 300" 
        stroke="white" stroke-width="3" fill="none" opacity="0.4"/>
  
  <!-- Sand beach -->
  <rect y="480" width="3840" height="240" fill="url(#sandG)"/>
  <!-- Sand texture bumps -->
  <ellipse cx="200" cy="530" rx="120" ry="20" fill="#FFCA28" opacity="0.6"/>
  <ellipse cx="600" cy="560" rx="100" ry="18" fill="#FFB300" opacity="0.4"/>
  <ellipse cx="1000" cy="540" rx="130" ry="22" fill="#FFCA28" opacity="0.5"/>
  <ellipse cx="1500" cy="570" rx="110" ry="20" fill="#FFB300" opacity="0.4"/>
  <ellipse cx="2000" cy="535" rx="120" ry="19" fill="#FFCA28" opacity="0.5"/>
  <ellipse cx="2500" cy="558" rx="140" ry="22" fill="#FFB300" opacity="0.4"/>
  <ellipse cx="3000" cy="545" rx="110" ry="20" fill="#FFCA28" opacity="0.6"/>
  <ellipse cx="3500" cy="562" rx="130" ry="21" fill="#FFB300" opacity="0.4"/>
  
  <!-- Sand castles -->
  <!-- Castle 1 -->
  <g transform="translate(300,480)">
    <rect x="0" y="40" width="80" height="60" fill="#F4A460" rx="2"/>
    <rect x="10" y="20" width="60" height="40" fill="#DEB887" rx="2"/>
    <rect x="20" y="0" width="40" height="30" fill="#CD853F" rx="2"/>
    <rect x="8" y="15" width="12" height="15" fill="#CD853F"/>
    <rect x="60" y="15" width="12" height="15" fill="#CD853F"/>
    <rect x="28" y="0" width="8" height="10" fill="#A0522D"/>
    <rect x="44" y="0" width="8" height="10" fill="#A0522D"/>
    <!-- Flag -->
    <line x1="40" y1="0" x2="40" y2="-20" stroke="#8B4513" stroke-width="2"/>
    <polygon points="40,-20 60,-12 40,-4" fill="#FF5252"/>
    <!-- Door -->
    <rect x="30" y="70" width="20" height="30" rx="10" fill="#8B4513"/>
    <!-- Windows -->
    <rect x="10" y="48" width="16" height="14" rx="4" fill="#87CEEB"/>
    <rect x="54" y="48" width="16" height="14" rx="4" fill="#87CEEB"/>
  </g>
  
  <!-- Castle 2 (bigger) -->
  <g transform="translate(1200,460)">
    <rect x="0" y="60" width="120" height="80" fill="#F4A460" rx="2"/>
    <rect x="20" y="30" width="80" height="50" fill="#DEB887" rx="2"/>
    <rect x="35" y="5" width="50" height="40" fill="#CD853F" rx="2"/>
    <rect x="12" y="25" width="18" height="20" fill="#CD853F"/>
    <rect x="90" y="25" width="18" height="20" fill="#CD853F"/>
    <line x1="60" y1="5" x2="60" y2="-20" stroke="#8B4513" stroke-width="2"/>
    <polygon points="60,-20 84,-10 60,0" fill="#4CAF50"/>
    <rect x="46" y="90" width="28" height="50" rx="14" fill="#8B4513"/>
    <rect x="15" y="68" width="22" height="18" rx="5" fill="#87CEEB"/>
    <rect x="83" y="68" width="22" height="18" rx="5" fill="#87CEEB"/>
  </g>
  
  <!-- Beach umbrella 1 -->
  <g transform="translate(600,320)">
    <polygon points="60,0 120,140 0,140" fill="#FF5252"/>
    <polygon points="60,0 90,70 30,70" fill="white"/>
    <polygon points="60,0 120,140 90,140" fill="#FF5252"/>
    <polygon points="0,140 30,70 60,140" fill="#FF5252"/>
    <rect x="57" y="0" width="6" height="200" fill="#A1887F" rx="3"/>
  </g>
  
  <!-- Beach umbrella 2 -->
  <g transform="translate(1700,300)">
    <polygon points="60,0 120,140 0,140" fill="#42A5F5"/>
    <polygon points="60,0 90,70 30,70" fill="white"/>
    <polygon points="60,0 120,140 90,140" fill="#42A5F5"/>
    <polygon points="0,140 30,70 60,140" fill="#42A5F5"/>
    <rect x="57" y="0" width="6" height="220" fill="#A1887F" rx="3"/>
    <!-- Towel under umbrella -->
    <rect x="-30" y="200" width="180" height="20" rx="8" fill="#FFEB3B"/>
    <line x1="-30" y1="200" x2="-30" y2="220" stroke="#FFA000" stroke-width="4"/>
    <line x1="10" y1="200" x2="10" y2="220" stroke="#FFA000" stroke-width="4"/>
    <line x1="50" y1="200" x2="50" y2="220" stroke="#FFA000" stroke-width="4"/>
    <line x1="90" y1="200" x2="90" y2="220" stroke="#FFA000" stroke-width="4"/>
    <line x1="130" y1="200" x2="130" y2="220" stroke="#FFA000" stroke-width="4"/>
  </g>
  
  <!-- Beach umbrella 3 -->
  <g transform="translate(2600,310)">
    <polygon points="60,0 120,140 0,140" fill="#FFEB3B"/>
    <polygon points="60,0 90,70 30,70" fill="#FF8A65"/>
    <polygon points="60,0 120,140 90,140" fill="#FFEB3B"/>
    <polygon points="0,140 30,70 60,140" fill="#FFEB3B"/>
    <rect x="57" y="0" width="6" height="210" fill="#A1887F" rx="3"/>
  </g>
  
  <!-- Beach umbrella 4 -->
  <g transform="translate(3300,325)">
    <polygon points="60,0 120,140 0,140" fill="#66BB6A"/>
    <polygon points="60,0 90,70 30,70" fill="white"/>
    <polygon points="60,0 120,140 90,140" fill="#66BB6A"/>
    <polygon points="0,140 30,70 60,140" fill="#66BB6A"/>
    <rect x="57" y="0" width="6" height="195" fill="#A1887F" rx="3"/>
  </g>
  
  <!-- Palm trees -->
  <!-- Palm 1 -->
  <g transform="translate(100,240)">
    <path d="M 40 240 Q 50 180 60 100 Q 70 40 80 0" stroke="#795548" stroke-width="20" fill="none" stroke-linecap="round"/>
    <!-- Leaves -->
    <path d="M 80 0 Q 130 -20 150 20" stroke="#388E3C" stroke-width="12" fill="none" stroke-linecap="round"/>
    <path d="M 80 0 Q 80 -50 60 -60" stroke="#388E3C" stroke-width="12" fill="none" stroke-linecap="round"/>
    <path d="M 80 0 Q 40 -40 10 -20" stroke="#388E3C" stroke-width="12" fill="none" stroke-linecap="round"/>
    <path d="M 80 0 Q 110 30 130 10" stroke="#388E3C" stroke-width="12" fill="none" stroke-linecap="round"/>
    <path d="M 80 0 Q 50 30 20 20" stroke="#388E3C" stroke-width="12" fill="none" stroke-linecap="round"/>
    <!-- Coconuts -->
    <circle cx="90" cy="10" r="12" fill="#795548"/>
    <circle cx="72" cy="14" r="10" fill="#795548"/>
  </g>
  
  <!-- Palm 2 -->
  <g transform="translate(2000,230)">
    <path d="M 30 240 Q 40 180 60 100 Q 72 40 70 0" stroke="#795548" stroke-width="18" fill="none" stroke-linecap="round"/>
    <path d="M 70 0 Q 120 -30 145 15" stroke="#388E3C" stroke-width="11" fill="none" stroke-linecap="round"/>
    <path d="M 70 0 Q 70 -55 46 -65" stroke="#388E3C" stroke-width="11" fill="none" stroke-linecap="round"/>
    <path d="M 70 0 Q 28 -44 -2 -26" stroke="#388E3C" stroke-width="11" fill="none" stroke-linecap="round"/>
    <path d="M 70 0 Q 104 32 120 10" stroke="#388E3C" stroke-width="11" fill="none" stroke-linecap="round"/>
    <circle cx="76" cy="8" r="11" fill="#795548"/>
    <circle cx="60" cy="12" r="10" fill="#795548"/>
  </g>
  
  <!-- Palm 3 -->
  <g transform="translate(3600,250)">
    <path d="M 30 240 Q 48 175 58 95 Q 66 38 76 0" stroke="#795548" stroke-width="18" fill="none" stroke-linecap="round"/>
    <path d="M 76 0 Q 126 -25 148 18" stroke="#388E3C" stroke-width="11" fill="none" stroke-linecap="round"/>
    <path d="M 76 0 Q 76 -52 54 -64" stroke="#388E3C" stroke-width="11" fill="none" stroke-linecap="round"/>
    <path d="M 76 0 Q 32 -42 4 -22" stroke="#388E3C" stroke-width="11" fill="none" stroke-linecap="round"/>
    <path d="M 76 0 Q 108 30 126 8" stroke="#388E3C" stroke-width="11" fill="none" stroke-linecap="round"/>
    <circle cx="82" cy="8" r="11" fill="#795548"/>
    <circle cx="66" cy="12" r="10" fill="#795548"/>
  </g>
  
  <!-- Stars/shells on sand -->
  <text x="460" y="560" font-size="48" opacity="0.6">⭐</text>
  <text x="900" y="580" font-size="36" opacity="0.5">🐚</text>
  <text x="1440" y="565" font-size="42" opacity="0.55">⭐</text>
  <text x="2200" y="575" font-size="38" opacity="0.5">🐚</text>
  <text x="2800" y="560" font-size="44" opacity="0.6">⭐</text>
  <text x="3400" y="578" font-size="36" opacity="0.5">🐚</text>
</svg>
