<svg xmlns="http://www.w3.org/2000/svg" viewBox="0 0 128 128" width="128" height="128">
  <!-- 8 tentacles -->
  <ellipse cx="36" cy="108" rx="7" ry="20" fill="#E91E8C" transform="rotate(-30,36,108)"/>
  <ellipse cx="50" cy="116" rx="7" ry="20" fill="#E91E8C" transform="rotate(-10,50,116)"/>
  <ellipse cx="64" cy="118" rx="7" ry="20" fill="#E91E8C"/>
  <ellipse cx="78" cy="116" rx="7" ry="20" fill="#E91E8C" transform="rotate(10,78,116)"/>
  <ellipse cx="92" cy="108" rx="7" ry="20" fill="#E91E8C" transform="rotate(30,92,108)"/>
  <ellipse cx="26" cy="98" rx="7" ry="20" fill="#E91E8C" transform="rotate(-50,26,98)"/>
  <ellipse cx="102" cy="98" rx="7" ry="20" fill="#E91E8C" transform="rotate(50,102,98)"/>
  <!-- Body -->
  <ellipse cx="64" cy="70" rx="44" ry="44" fill="#F06292" stroke="#C2185B" stroke-width="2"/>
  <!-- Body pattern -->
  <ellipse cx="64" cy="70" rx="32" ry="32" fill="#F48FB1" opacity="0.5"/>
  <!-- Head -->
  <ellipse cx="64" cy="56" rx="32" ry="24" fill="#F06292" stroke="#C2185B" stroke-width="2"/>
  <!-- Eyes -->
  <circle cx="46" cy="50" r="11" fill="white" stroke="#C2185B" stroke-width="1.5"/>
  <circle cx="48" cy="50" r="6.5" fill="#1a1a1a"/>
  <circle cx="50" cy="47" r="2.5" fill="white"/>
  <circle cx="82" cy="50" r="11" fill="white" stroke="#C2185B" stroke-width="1.5"/>
  <circle cx="84" cy="50" r="6.5" fill="#1a1a1a"/>
  <circle cx="86" cy="47" r="2.5" fill="white"/>
  <!-- Blush -->
  <ellipse cx="36" cy="60" rx="8" ry="5" fill="#FF80AB" opacity="0.6"/>
  <ellipse cx="92" cy="60" rx="8" ry="5" fill="#FF80AB" opacity="0.6"/>
  <!-- Smile -->
  <path d="M 48 66 Q 64 76 80 66" stroke="#C2185B" stroke-width="2.5" fill="none" stroke-linecap="round"/>
  <!-- Suckers -->
  <circle cx="36" cy="100" r="3" fill="#F48FB1"/>
  <circle cx="50" cy="108" r="3" fill="#F48FB1"/>
  <circle cx="64" cy="110" r="3" fill="#F48FB1"/>
  <circle cx="78" cy="108" r="3" fill="#F48FB1"/>
  <circle cx="92" cy="100" r="3" fill="#F48FB1"/>
</svg>
