<svg xmlns="http://www.w3.org/2000/svg" viewBox="0 0 128 128" width="128" height="128">
  <!-- Shadow -->
  <ellipse cx="64" cy="123" rx="30" ry="5" fill="#00000020"/>
  <!-- Shell spiral -->
  <ellipse cx="64" cy="72" rx="52" ry="46" fill="#FFF9C4" stroke="#F9A825" stroke-width="2"/>
  <ellipse cx="64" cy="72" rx="38" ry="34" fill="#FFF176" stroke="#F9A825" stroke-width="1.5"/>
  <ellipse cx="64" cy="72" rx="26" ry="22" fill="#FFEE58" stroke="#F9A825" stroke-width="1.5"/>
  <ellipse cx="64" cy="72" rx="14" ry="12" fill="#FFD600" stroke="#F9A825" stroke-width="1.5"/>
  <!-- Spiral line -->
  <path d="M 64 60 Q 78 64 78 72 Q 78 84 64 86 Q 48 84 46 72 Q 46 54 64 52" 
        stroke="#F57F17" stroke-width="2" fill="none" stroke-linecap="round"/>
  <!-- Point at top -->
  <ellipse cx="64" cy="28" rx="12" ry="18" fill="#FFF9C4" stroke="#F9A825" stroke-width="2"/>
  <ellipse cx="64" cy="22" rx="8" ry="12" fill="#FFF176" stroke="#F9A825" stroke-width="1.5"/>
  <ellipse cx="64" cy="16" rx="5" ry="8" fill="#FFEE58" stroke="#F9A825" stroke-width="1.5"/>
  <!-- Opening -->
  <ellipse cx="36" cy="86" rx="16" ry="10" fill="#E65100" stroke="#BF360C" stroke-width="1.5"/>
  <!-- Tentacles/antennae -->
  <line x1="30" y1="78" x2="18" y2="64" stroke="#F9A825" stroke-width="2"/>
  <circle cx="17" cy="62" r="4" fill="#FFD600"/>
  <line x1="32" y1="74" x2="22" y2="58" stroke="#F9A825" stroke-width="2"/>
  <circle cx="21" cy="56" r="4" fill="#FFD600"/>
</svg>
